<svg width="18" height="18" viewBox="0 0 18 18" fill="none" xmlns="http://www.w3.org/2000/svg">
<path d="M8.75 17.5C7.55417 17.5 6.42396 17.2703 5.35938 16.8109C4.29479 16.3516 3.3651 15.7245 2.57031 14.9297C1.77552 14.1349 1.14844 13.2052 0.689062 12.1406C0.229687 11.076 0 9.94583 0 8.75C0 7.51042 0.233333 6.35833 0.7 5.29375C1.16667 4.22917 1.80469 3.30312 2.61406 2.51562C3.42344 1.72813 4.37135 1.11198 5.45781 0.667188C6.54427 0.222396 7.70729 0 8.94688 0C10.099 0 11.1927 0.193229 12.2281 0.579687C13.2635 0.966146 14.1714 1.50208 14.9516 2.1875C15.7318 2.87292 16.3516 3.68594 16.8109 4.62656C17.2703 5.56719 17.5 6.59896 17.5 7.72187C17.5 9.29687 17.0406 10.5401 16.1219 11.4516C15.2031 12.363 13.9854 12.8187 12.4688 12.8187H10.8281C10.5656 12.8187 10.3396 12.9208 10.15 13.125C9.96042 13.3292 9.86562 13.5552 9.86562 13.8031C9.86562 14.1969 9.97135 14.5323 10.1828 14.8094C10.3943 15.0865 10.5 15.4073 10.5 15.7719C10.5 16.326 10.3469 16.7526 10.0406 17.0516C9.73438 17.3505 9.30417 17.5 8.75 17.5ZM3.65313 9.31875C3.94479 9.31875 4.2 9.20937 4.41875 8.99062C4.6375 8.77187 4.74688 8.51667 4.74688 8.225C4.74688 7.93333 4.6375 7.67812 4.41875 7.45937C4.2 7.24062 3.94479 7.13125 3.65313 7.13125C3.36146 7.13125 3.10625 7.24062 2.8875 7.45937C2.66875 7.67812 2.55938 7.93333 2.55938 8.225C2.55938 8.51667 2.66875 8.77187 2.8875 8.99062C3.10625 9.20937 3.36146 9.31875 3.65313 9.31875ZM6.40937 5.6C6.70104 5.6 6.95625 5.49062 7.175 5.27187C7.39375 5.05312 7.50312 4.79792 7.50312 4.50625C7.50312 4.21458 7.39375 3.95938 7.175 3.74063C6.95625 3.52188 6.70104 3.4125 6.40937 3.4125C6.11771 3.4125 5.8625 3.52188 5.64375 3.74063C5.425 3.95938 5.31562 4.21458 5.31562 4.50625C5.31562 4.79792 5.425 5.05312 5.64375 5.27187C5.8625 5.49062 6.11771 5.6 6.40937 5.6ZM11.0906 5.6C11.3823 5.6 11.6375 5.49062 11.8563 5.27187C12.075 5.05312 12.1844 4.79792 12.1844 4.50625C12.1844 4.21458 12.075 3.95938 11.8563 3.74063C11.6375 3.52188 11.3823 3.4125 11.0906 3.4125C10.799 3.4125 10.5438 3.52188 10.325 3.74063C10.1063 3.95938 9.99688 4.21458 9.99688 4.50625C9.99688 4.79792 10.1063 5.05312 10.325 5.27187C10.5438 5.49062 10.799 5.6 11.0906 5.6ZM13.9563 9.31875C14.2479 9.31875 14.5031 9.20937 14.7219 8.99062C14.9406 8.77187 15.05 8.51667 15.05 8.225C15.05 7.93333 14.9406 7.67812 14.7219 7.45937C14.5031 7.24062 14.2479 7.13125 13.9563 7.13125C13.6646 7.13125 13.4094 7.24062 13.1906 7.45937C12.9719 7.67812 12.8625 7.93333 12.8625 8.225C12.8625 8.51667 12.9719 8.77187 13.1906 8.99062C13.4094 9.20937 13.6646 9.31875 13.9563 9.31875ZM8.75 16.1875C8.91042 16.1875 9.02344 16.1547 9.08906 16.0891C9.15469 16.0234 9.1875 15.9177 9.1875 15.7719C9.1875 15.5677 9.08177 15.3781 8.87031 15.2031C8.65885 15.0281 8.55312 14.6417 8.55312 14.0437C8.55312 13.3729 8.77187 12.7823 9.20937 12.2719C9.64687 11.7615 10.201 11.5062 10.8719 11.5062H12.4688C13.5771 11.5062 14.474 11.1818 15.1594 10.5328C15.8448 9.88385 16.1875 8.94687 16.1875 7.72187C16.1875 5.79687 15.4583 4.2474 14 3.07344C12.5417 1.89948 10.8573 1.3125 8.94688 1.3125C6.81771 1.3125 5.01302 2.03073 3.53281 3.46719C2.0526 4.90365 1.3125 6.66458 1.3125 8.75C1.3125 10.8062 2.03802 12.5599 3.48906 14.0109C4.9401 15.462 6.69375 16.1875 8.75 16.1875Z" fill="black"/>
</svg>
