<svg width="13" height="18" viewBox="0 0 13 18" fill="none" xmlns="http://www.w3.org/2000/svg">
<path d="M8.4427 17.0208V12.2906L6.27072 10.3313L5.42606 14.0521L0.0966797 12.9635L0.3179 11.8552L4.31997 12.6469L5.78806 5.34375L3.77697 6.27396V8.92604H2.57032V5.4625L5.8685 4.09688C6.29754 3.91215 6.60255 3.7967 6.78355 3.75052C6.96455 3.70434 7.1489 3.68125 7.3366 3.68125C7.60474 3.68125 7.84272 3.73733 8.05054 3.84948C8.25835 3.96163 8.43599 4.12986 8.58347 4.35417L9.42813 5.68021C9.77672 6.23438 10.2527 6.71597 10.856 7.125C11.4593 7.53403 12.1632 7.73854 12.9676 7.73854V8.92604C12.0694 8.92604 11.2683 8.72153 10.5644 8.3125C9.86052 7.90347 9.20691 7.28993 8.60358 6.47188L7.81926 9.59896L9.64935 11.2615V17.0208H8.4427ZM8.54325 2.88958C8.14103 2.88958 7.7958 2.74774 7.50754 2.46406C7.21929 2.18038 7.07516 1.84063 7.07516 1.44479C7.07516 1.04896 7.21929 0.709201 7.50754 0.425521C7.7958 0.14184 8.14103 0 8.54325 0C8.94547 0 9.29071 0.14184 9.57896 0.425521C9.86722 0.709201 10.0113 1.04896 10.0113 1.44479C10.0113 1.84063 9.86722 2.18038 9.57896 2.46406C9.29071 2.74774 8.94547 2.88958 8.54325 2.88958Z" fill="black"/>
</svg>
