<svg width="16" height="10" viewBox="0 0 16 10" fill="none" xmlns="http://www.w3.org/2000/svg">
<path d="M0 10V5.44643C0 5.14881 0.0666667 4.86905 0.2 4.60714C0.333333 4.34524 0.533333 4.13095 0.8 3.96429V1.89286C0.8 1.35714 1.00333 0.907738 1.41 0.544643C1.81667 0.181547 2.32 0 2.92 0H6.52C6.81333 0 7.08667 0.0595238 7.34 0.178571C7.59333 0.297619 7.81333 0.458333 8 0.660714C8.18667 0.458333 8.40333 0.297619 8.65 0.178571C8.89667 0.0595238 9.16667 0 9.46 0H13.06C13.66 0 14.1667 0.181547 14.58 0.544643C14.9933 0.907738 15.2 1.35714 15.2 1.89286V3.96429C15.4667 4.13095 15.6667 4.34524 15.8 4.60714C15.9333 4.86905 16 5.14881 16 5.44643V10H14.8V8.57143H1.2V10H0ZM8.6 3.66071H14V1.89286C14 1.65476 13.91 1.45833 13.73 1.30357C13.55 1.14881 13.3267 1.07143 13.06 1.07143H9.4C9.17333 1.07143 8.98333 1.15476 8.83 1.32143C8.67667 1.4881 8.6 1.67857 8.6 1.89286V3.66071ZM2 3.66071H7.4V1.89286C7.4 1.67857 7.32333 1.4881 7.17 1.32143C7.01667 1.15476 6.82667 1.07143 6.6 1.07143H2.92C2.66667 1.07143 2.45 1.15179 2.27 1.3125C2.09 1.47321 2 1.66667 2 1.89286V3.66071ZM1.2 7.5H14.8V5.44643C14.8 5.24405 14.7233 5.07441 14.57 4.9375C14.4167 4.8006 14.2267 4.73214 14 4.73214H2C1.77333 4.73214 1.58333 4.8006 1.43 4.9375C1.27667 5.07441 1.2 5.24405 1.2 5.44643V7.5ZM14.8 7.5H1.2H14.8Z" fill="black"/>
</svg>
