<svg width="18" height="15" viewBox="0 0 18 15" fill="none" xmlns="http://www.w3.org/2000/svg">
<path d="M5.68125 15V12.2062H0L3.54375 7.06875H1.7625L6.75 0L9 3.1875L11.25 0L16.2375 7.06875H14.475L18 12.2062H12.3375V15H10.1812V12.2062H7.8375V15H5.68125ZM12.75 11.0812H15.8438L12.3 5.94375H13.9688L11.25 2.08125L9.75 4.2375L11.7375 7.06875H9.975L12.75 11.0812ZM2.175 11.0812H11.3438L7.8 5.94375H9.46875L6.75 2.08125L4.03125 5.94375H5.71875L2.175 11.0812ZM2.175 11.0812H5.71875H4.03125H9.46875H7.8H11.3438H2.175ZM12.75 11.0812H9.975H11.7375H9.75H13.9688H12.3H15.8438H12.75ZM10.1812 12.2062H12.3375H10.1812Z" fill="black"/>
</svg>
