<svg width="55" height="51" viewBox="0 0 55 51" fill="none" xmlns="http://www.w3.org/2000/svg">
<ellipse cx="27.0269" cy="25.5" rx="27.0269" ry="25.5" fill="#53924F"/>
<path d="M12.3208 37.375V15.9844H19.061V9.625H34.9923V22.3438H41.7325V37.375H29.1917V31.0156H24.8616V37.375H12.3208ZM14.7718 35.0625H19.061V31.0156H14.7718V35.0625ZM14.7718 28.7031H19.061V24.6562H14.7718V28.7031ZM14.7718 22.3438H19.061V18.2969H14.7718V22.3438ZM21.5119 28.7031H25.8012V24.6562H21.5119V28.7031ZM21.5119 22.3438H25.8012V18.2969H21.5119V22.3438ZM21.5119 15.9844H25.8012V11.9375H21.5119V15.9844ZM28.2521 28.7031H32.5413V24.6562H28.2521V28.7031ZM28.2521 22.3438H32.5413V18.2969H28.2521V22.3438ZM28.2521 15.9844H32.5413V11.9375H28.2521V15.9844ZM34.9923 35.0625H39.2815V31.0156H34.9923V35.0625ZM34.9923 28.7031H39.2815V24.6562H34.9923V28.7031Z" fill="white"/>
</svg>
