<svg width="91" height="91" viewBox="0 0 91 91" fill="none" xmlns="http://www.w3.org/2000/svg">
<g filter="url(#filter0_d_929_1001)">
<circle cx="45.5" cy="41.5" r="25.5" fill="#53924F"/>
</g>
<path d="M32 33.1271V27H38.1271V29.125H34.125V33.1271H32ZM32 55.3333V49.2062H34.125V53.2083H38.1271V55.3333H32ZM54.2062 55.3333V53.2083H58.2083V49.2062H60.3333V55.3333H54.2062ZM58.2083 33.1271V29.125H54.2062V27H60.3333V33.1271H58.2083ZM54.2417 49.2771H56.4729V51.5083H54.2417V49.2771ZM54.2417 44.8146H56.4729V47.0458H54.2417V44.8146ZM52.0104 47.0458H54.2417V49.2771H52.0104V47.0458ZM49.7792 49.2771H52.0104V51.5083H49.7792V49.2771ZM47.5479 47.0458H49.7792V49.2771H47.5479V47.0458ZM52.0104 42.5833H54.2417V44.8146H52.0104V42.5833ZM49.7792 44.8146H52.0104V47.0458H49.7792V44.8146ZM47.5479 42.5833H49.7792V44.8146H47.5479V42.5833ZM56.4729 30.825V39.75H47.5479V30.825H56.4729ZM44.75 42.5833V51.5083H35.825V42.5833H44.75ZM44.75 30.825V39.75H35.825V30.825H44.75ZM42.9792 49.7375V44.3542H37.5958V49.7375H42.9792ZM42.9792 37.9792V32.5958H37.5958V37.9792H42.9792ZM54.7021 37.9792V32.5958H49.3188V37.9792H54.7021Z" fill="white"/>
<defs>
<filter id="filter0_d_929_1001" x="0" y="0" width="91" height="91" filterUnits="userSpaceOnUse" color-interpolation-filters="sRGB">
<feFlood flood-opacity="0" result="BackgroundImageFix"/>
<feColorMatrix in="SourceAlpha" type="matrix" values="0 0 0 0 0 0 0 0 0 0 0 0 0 0 0 0 0 0 127 0" result="hardAlpha"/>
<feOffset dy="4"/>
<feGaussianBlur stdDeviation="10"/>
<feComposite in2="hardAlpha" operator="out"/>
<feColorMatrix type="matrix" values="0 0 0 0 0 0 0 0 0 0 0 0 0 0 0 0 0 0 0.25 0"/>
<feBlend mode="normal" in2="BackgroundImageFix" result="effect1_dropShadow_929_1001"/>
<feBlend mode="normal" in="SourceGraphic" in2="effect1_dropShadow_929_1001" result="shape"/>
</filter>
</defs>
</svg>
