<svg width="14" height="16" viewBox="0 0 14 16" fill="none" xmlns="http://www.w3.org/2000/svg">
<path d="M3.28763 15.8333V8.55C2.53565 8.40486 1.89575 8.05851 1.36792 7.51094C0.840087 6.96337 0.576172 6.30694 0.576172 5.54167V0H1.87767V5.54167H3.28763V0H4.58913V5.54167H5.99909V0H7.30059V5.54167C7.30059 6.30694 7.03667 6.96337 6.50884 7.51094C5.98101 8.05851 5.34111 8.40486 4.58913 8.55V15.8333H3.28763ZM12.2897 15.8333V9.5H9.79513V3.46354C9.79513 2.42118 10.1422 1.58333 10.8363 0.95C11.5305 0.316667 12.4487 0 13.5912 0V15.8333H12.2897Z" fill="black"/>
</svg>
