<svg width="12" height="16" viewBox="0 0 12 16" fill="none" xmlns="http://www.w3.org/2000/svg">
<path d="M0.111328 11.25V3.33333C0.111328 2.76389 0.223725 2.26736 0.448519 1.84375C0.673314 1.42014 1.01938 1.07292 1.48671 0.802083C1.95405 0.53125 2.54561 0.329861 3.26141 0.197917C3.9772 0.0659722 4.82018 0 5.79034 0C6.80783 0 7.67447 0.0624999 8.39026 0.1875C9.10606 0.3125 9.6917 0.510417 10.1472 0.78125C10.6027 1.05208 10.9369 1.39583 11.1499 1.8125C11.3629 2.22917 11.4694 2.73611 11.4694 3.33333V11.25C11.4694 12.0694 11.2298 12.7604 10.7506 13.3229C10.2714 13.8854 9.68283 14.1667 8.98479 14.1667L10.0496 15.4167V15.8333H8.80732L7.38756 14.1667H4.19312L2.77337 15.8333H1.53108V15.4167L2.5959 14.1667C1.89785 14.1667 1.30924 13.8854 0.830078 13.3229C0.350911 12.7604 0.111328 12.0694 0.111328 11.25ZM5.79034 1.25C4.37059 1.25 3.34718 1.35764 2.72012 1.57292C2.09307 1.78819 1.64348 2.09722 1.37136 2.5H10.2626C10.0496 2.125 9.59705 1.82292 8.90493 1.59375C8.2128 1.36458 7.1746 1.25 5.79034 1.25ZM1.17614 6.97917H5.32892V3.75H1.17614V6.97917ZM8.98479 8.22917H1.17614H10.4045H8.98479ZM6.39374 6.97917H10.4045V3.75H6.39374V6.97917ZM3.21704 11.7708C3.48916 11.7708 3.71987 11.6597 3.90917 11.4375C4.09847 11.2153 4.19312 10.9444 4.19312 10.625C4.19312 10.3056 4.09847 10.0347 3.90917 9.8125C3.71987 9.59028 3.48916 9.47917 3.21704 9.47917C2.94492 9.47917 2.71421 9.59028 2.52491 9.8125C2.33561 10.0347 2.24096 10.3056 2.24096 10.625C2.24096 10.9444 2.33561 11.2153 2.52491 11.4375C2.71421 11.6597 2.94492 11.7708 3.21704 11.7708ZM8.36364 11.7708C8.63576 11.7708 8.86647 11.6597 9.05577 11.4375C9.24507 11.2153 9.33972 10.9444 9.33972 10.625C9.33972 10.3056 9.24507 10.0347 9.05577 9.8125C8.86647 9.59028 8.63576 9.47917 8.36364 9.47917C8.09152 9.47917 7.86081 9.59028 7.67151 9.8125C7.48221 10.0347 7.38756 10.3056 7.38756 10.625C7.38756 10.9444 7.48221 11.2153 7.67151 11.4375C7.86081 11.6597 8.09152 11.7708 8.36364 11.7708V11.7708ZM2.5959 13.0208H8.98479C9.38705 13.0208 9.72424 12.8472 9.99636 12.5C10.2685 12.1528 10.4045 11.7361 10.4045 11.25V8.22917H1.17614V11.25C1.17614 11.7361 1.3122 12.1528 1.58432 12.5C1.85644 12.8472 2.19363 13.0208 2.5959 13.0208ZM5.79034 2.5H10.2626H1.37136H5.79034Z" fill="black"/>
</svg>
